<?xml version="1.0" encoding="UTF-8"?><svg id="a" xmlns="http://www.w3.org/2000/svg" width="397.93" height="326.9" xmlns:xlink="http://www.w3.org/1999/xlink" viewBox="0 0 397.93 326.9"><defs><radialGradient id="b" cx="-1409.48" cy="-1115.51" fx="-1409.48" fy="-1115.51" r="2.24" gradientTransform="translate(60336.11 -92180.03) rotate(-18.57) scale(61.31 -61.31)" gradientUnits="userSpaceOnUse"><stop offset="0" stop-color="#ef7f34"/><stop offset="0" stop-color="#ef7f34"/><stop offset=".34" stop-color="#f39b2f"/><stop offset=".76" stop-color="#f8b92a"/><stop offset="1" stop-color="#fac529"/></radialGradient><radialGradient id="c" cx="-1499.24" cy="-1076.38" fx="-1499.24" fy="-1076.38" r="2.24" gradientTransform="translate(-19311.98 -27103.59) rotate(-161.43) scale(18.23)" gradientUnits="userSpaceOnUse"><stop offset="0" stop-color="#ef7f34"/><stop offset="0" stop-color="#ef7f34"/><stop offset=".22" stop-color="#ef8333"/><stop offset=".48" stop-color="#f29230"/><stop offset=".76" stop-color="#f5a92d"/><stop offset="1" stop-color="#fac529"/></radialGradient><radialGradient id="d" cx="-1496.25" cy="-1076.14" fx="-1496.25" fy="-1076.14" r="2.24" gradientTransform="translate(-17906.48 -24786.91) rotate(-161.43) scale(16.7)" xlink:href="#c"/><radialGradient id="e" cx="-1363.11" cy="-1102.29" fx="-1363.11" fy="-1102.29" r="2.24" gradientTransform="translate(26365.03 -20897.75) scale(19.2 -19.2)" gradientUnits="userSpaceOnUse"><stop offset="0" stop-color="#ec6b53"/><stop offset="0" stop-color="#ec6b53"/><stop offset=".35" stop-color="#eb654f"/><stop offset=".77" stop-color="#e95744"/><stop offset="1" stop-color="#e84c3c"/></radialGradient><radialGradient id="f" cx="-1388.96" cy="-1103.22" fx="-1388.96" fy="-1103.22" r="2.24" gradientTransform="translate(41610.76 -32845.44) scale(29.88 -29.88)" xlink:href="#e"/><radialGradient id="g" cx="-1476.69" cy="-1103.22" fx="-1476.69" fy="-1103.22" r="2.24" gradientTransform="translate(-43817.7 -32845.44) rotate(-180) scale(29.88)" xlink:href="#e"/></defs><path d="m206.82,8.28c85.7,0,155.17,69.47,155.17,155.17,0,1.08-.03,2.14-.05,3.21.4-.02.81-.03,1.22-.03h.35c1.84.04,3.81.28,5.89.79,13.35,3.27,27.99,21.46,15.51,56.04-14.98,41.54-61.9,73.16-115.4,86.98-.73.2-1.45.38-2.17.56-.85.21-1.7.41-2.56.61-.32.08-.64.16-.96.23-.85.21-1.7.39-2.56.58l-.28.07c-12.05,2.65-24.36,4.39-36.66,5.15-.71.08-1.43.14-2.14.21-.98.1-1.97.19-2.96.27-.73.06-1.46.11-2.19.15-1.07.07-2.15.13-3.23.18-.61.03-1.22.06-1.83.08-1.71.06-3.42.09-5.14.09-2.72,0-5.42-.07-8.11-.21-2.52.12-5.05.21-7.6.21-5.91,0-11.75-.34-17.49-.98-12.3-.76-24.61-2.49-36.66-5.15l-.28-.07c-.86-.19-1.71-.37-2.56-.58-.32-.07-.64-.14-.96-.23-.86-.2-1.71-.4-2.56-.61-.72-.18-1.45-.36-2.17-.56-53.5-13.81-100.42-45.43-115.4-86.98-12.48-34.57,2.16-52.77,15.51-56.04,2.26-.55,4.38-.79,6.36-.79,7.75,0,13.34,3.66,16.91,6.4h.03c0-.46.02-.91.04-1.36-.14-2.71-.22-5.43-.22-8.17v-.05c0-8.97.76-17.77,2.22-26.33.24-1.43.51-2.85.79-4.26,2.54-12.72,6.64-24.87,12.08-36.26,6.65-13.92,15.32-26.69,25.62-37.93,4.68-5.11,9.7-9.91,15.03-14.35,26.93-22.5,61.6-36.03,99.42-36.03m0-8.28c-38.24,0-75.43,13.48-104.73,37.96-5.58,4.66-10.91,9.75-15.83,15.11-10.94,11.94-20.02,25.39-26.99,39.96-5.81,12.15-10.09,25-12.73,38.21-.3,1.49-.57,2.99-.83,4.49-1.33,7.8-2.1,15.78-2.29,23.76-2.56-.7-5.4-1.13-8.51-1.13-2.74,0-5.54.35-8.33,1.03-8.81,2.16-16.57,8.46-21.31,17.29-4.89,9.12-8.86,25.12-.02,49.6,7.7,21.35,23.66,41.32,46.16,57.76,20.86,15.25,46.78,27.15,74.96,34.42.7.19,1.5.39,2.29.59.84.21,1.7.41,2.56.61.34.09.68.16,1.02.24.81.2,1.63.38,2.45.56l.46.11c12.47,2.74,25.16,4.53,37.76,5.32,6.05.67,12.17,1.01,18.21,1.01,2.29,0,4.71-.06,7.59-.2,2.71.13,5.44.2,8.12.2,1.65,0,3.42-.03,5.41-.1.48-.01.95-.04,1.43-.06l.49-.02c1.15-.05,2.28-.11,3.41-.19.77-.05,1.53-.1,2.3-.16,1.05-.08,2.08-.18,3.12-.28l.67-.06c.45-.04.91-.09,1.36-.14,12.59-.79,25.29-2.58,37.73-5.31l.49-.12c.83-.18,1.64-.36,2.46-.56.35-.08.69-.16,1.02-.24.86-.2,1.72-.41,2.57-.62.79-.19,1.58-.39,2.38-.61,28.08-7.25,54-19.15,74.86-34.4,22.5-16.44,38.46-36.41,46.16-57.76,8.83-24.48,4.86-40.48-.02-49.6-4.73-8.83-12.5-15.14-21.31-17.29-.38-.09-.77-.18-1.15-.26C367.91,70.99,295.5,0,206.82,0Z" fill="#60262d" stroke-width="0"/><path d="m12.1,180.34c-4.81,10.06-4.76,23.57-2.61,34.08,8.23,40.25,48.41,67.63,83.17,83.73,5.45,2.53,11.07,4.7,16.82,6.46,7.79,2.4,7.03.77,12.23-4.59,5-5.14,11.34.07,16.19,2.49,7.07,3.52,14.42,6.48,21.95,8.87,15.16,4.81,31.05,7.23,46.95,7.23,30.76,0,59.44-8.96,83.56-24.41,43.07-27.57,71.61-75.83,71.61-130.76,0-85.7-69.47-155.17-155.17-155.17-37.82,0-72.49,13.53-99.42,36.03-17.97,15.01-32.21,34.53-43.27,54.98-10.95,20.26-15.18,49.93-12.71,72.63-6.74-3.97-13.86-6.75-21.83-5.28-8.67,1.59-14.2,6.84-17.48,13.7Z" fill="#ffe966" stroke-width="0"/><path d="m385.03,223.64c6.28-16.47,7.46-34.32-2.93-48.62-3.54-4.87-11.94-6.93-17.51-7.62-.99-.12-2.09-.3-2.7-1.09-.49-.62-.54-1.47-.56-2.26-.94-37.87-14.16-76.39-39.66-105.23-20.56-23.25-48.54-38.9-78.74-45.62-15.71-3.49-32.12-3.21-47.81.24-29.72,6.53-57.78,20.83-80.15,41.51-17.37,16.06-31.19,35.86-40.62,57.54-4.79,11-8.46,22.49-10.9,34.25-2.29,11.04-1.38,23.04-3.87,33.76-13.04-3.65-27.19-2.48-36.16,9.14-7.16,9.27-8.24,22.16-5.39,33.52,2.85,11.36,9.18,21.5,15.82,31.16,21.18,30.8,59.09,46.97,94.57,56.13.72.2,1.45.38,2.17.56.85.21,1.7.41,2.56.61.32.08.64.16.96.23.85.21,1.7.39,2.56.58l.28.07c12.05,2.65,24.37,4.39,36.66,5.15,5.74.65,11.58.98,17.49.98,2.64,0,5.25-.09,7.85-.22,2.6.13,5.22.22,7.85.22,5.91,0,11.75-.34,17.49-.98,12.3-.76,24.61-2.49,36.66-5.15l.28-.07c.86-.19,1.71-.37,2.56-.58.32-.07.64-.14.96-.23.86-.2,1.71-.4,2.56-.61.72-.18,1.45-.36,2.17-.56,26.28-6.79,51.89-17.91,73.69-34.23,7.32-5.49,14.16-11.63,20.38-18.34,8.21-8.86,16.45-21.1,21.46-34.23Z" fill="#fac529" stroke-width="0"/><path d="m334.3,128.49c23.7,70.52-14.27,146.91-84.79,170.61-70.53,23.7-146.91-14.26-170.61-84.79-23.7-70.53,14.27-146.91,84.79-170.61,70.53-23.7,146.91,14.27,170.61,84.79Z" fill="url(#b)" stroke-width="0"/><path d="m309.38,191.8c-7.31,21.77,4.4,45.35,26.17,52.66,18.2,6.12,42.65-1.6,49.29-20.81,5.98-17.31,5.25-38.93-10.19-51.19-5.36-4.25-9.24-4.8-15.94-3.49-.99.2-14.22,4.26-14.22,4.24,0-1.6,1.11-8.42-.1-9.47-1.5-1.29-6,1.02-7.58,1.49-4.1,1.24-8,3.11-11.53,5.53-7.42,5.08-13.03,12.53-15.9,21.05Z" fill="url(#c)" stroke-width="0"/><path d="m338.19,188.03c0,3.99-3.24,7.23-7.23,7.23s-7.23-3.24-7.23-7.23,3.24-7.23,7.23-7.23,7.23,3.24,7.23,7.23Z" fill="#fcf4d9" stroke-width="0"/><path d="m22.27,195.58c-3.91,8.97-4.3,19.47-1.87,29.03,9,35.42,56.12,17.55,65.02-8.93,3.81-11.34,2.49-23.99-3.56-34.3-2.97-5.06-7-9.47-11.79-12.86-.43-.3-6.61-5-6.82-3.6-.49,3.25-.97,6.49-1.46,9.74-.12.78-.28,1.64-.92,2.11-.77.56-1.84.27-2.76,0-11.83-3.4-25.18,2.44-32.28,12.49-1.41,1.99-2.59,4.12-3.56,6.33Z" fill="url(#d)" stroke-width="0"/><path d="m31.36,178.19c0,3.99-3.24,7.23-7.23,7.23s-7.23-3.24-7.23-7.23,3.24-7.23,7.23-7.23,7.23,3.24,7.23,7.23Z" fill="#fcf4d9" stroke-width="0"/><path d="m81.2,205.38s166.04-22.97,236.84-18.93c0,0-7.71,109.32-100.46,115.26-112.86,7.23-136.38-96.34-136.38-96.34Z" fill="#60262d" stroke-width="0"/><path d="m311.16,193.85s-1.87,9.43-3.96,18.53h0c-1.37,6-2.83,11.84-3.9,14.78,0,0-95.24-1.06-197.99,16.87l-.02-.03c-.32-.52-4.01-6.44-8.78-16.25v-.02c-2.14-4.39-4.51-9.56-6.89-15.37,0,0,121.61-20.1,221.54-18.51Z" fill="#f2d9bd" stroke-width="0"/><path d="m244.43,287.41c-11.28,8.7-37.42,8.74-37.42,8.74,0,0-19.27.96-28.92-6.76-.24-.19-.46-.38-.67-.58h0c-8.77-8.07-4.45-26.33,18.26-23.66,4.88.57,11.73,1.87,17.87,8.18,0,0,11.15-12.75,25.73-9.59.42.09.83.2,1.22.31,11.2,3.3,12.79,16.53,3.92,23.36Z" fill="url(#e)" stroke-width="0"/><path d="m240.5,264.05c-3.84-.08-9.74,1.35-13.14,3.21-5.49,2.97-8.55,6.61-12.13,11.87-5.17-4.94-11.67-8.46-18.63-10.08-3.27-.77-6.7-1.11-9.99-.49-3.3.62-6.49,2.3-8.49,5-1.9,2.58-2.61,5.92-2.33,9.12.2,2.19,1.05,4.03,1.63,6.12-8.77-8.05-4.45-26.32,18.26-23.65,4.88.57,11.73,1.87,17.87,8.18,0,0,11.15-12.75,25.73-9.59.42.09.83.2,1.22.31Z" fill="#f4a68f" stroke-width="0"/><path d="m307.21,212.39h0c-1.37,6-2.83,11.84-3.9,14.78,0,0-95.24-1.06-197.99,16.87l-.02-.03-8.78-16.25v-.02c147.5-16.1,210.7-15.35,210.7-15.35Z" fill="#fcf4d9" stroke-width="0"/><path d="m241.22,48.21c-1.47.7-3.54,1.24-4.48-.09-.61-.86-.35-2.04-.02-3.03,2.74-8.09,9.44-14.76,17.54-17.49,2.88-.97,10.54-2.53,11.03,2.25.37,3.69-5.61,7.35-8.09,9.08-5.05,3.53-10.42,6.63-15.98,9.28Z" fill="#ffe966" stroke-width="0"/><path d="m224.82,41.32c-.55.59-1.22,1.22-2.03,1.15-1.14-.1-1.66-1.51-1.65-2.65,0-1.55.45-3.06.98-4.51,1.39-3.79,3.41-7.36,5.96-10.49,1.23-1.52,2.64-2.98,4.44-3.74,1.26-.53,4.97-1.05,5.42.85.29,1.23-3.04,5.36-3.73,6.5-2.77,4.55-5.77,8.98-9.39,12.91Z" fill="#ffe966" stroke-width="0"/><path d="m261.25,312.42c.86-.19,1.71-.37,2.56-.58-.9.2-1.75.39-2.56.58Z" fill="#ffe966" stroke-width="0"/><path d="m127.5,180.26v.15s-.11-.04-.11-.04l-.1.08-.04-.13c-1.46-.54-8.68-3.23-18.39-7.75-25.61-11.97-68.5-36.75-68.6-68.5-.04-16.97,10.53-27.72,18.64-32.17,8.45-4.64,17.02-4.7,24.72-2.25,9.06,2.87,16.91,9.21,21.9,15.64,1.62,2.08,3.14,4.84,4.57,8.11.08-3.57.44-6.7,1.13-9.24,3.98-14.53,17.09-32.51,37.94-30.21,9.19,1.02,23.08,6.89,29.53,22.59,16.65,40.52-47.03,99.93-51.17,103.74Z" fill="url(#f)" stroke-width="0"/><path d="m145.55,53.73c1.17,0,2.37.07,3.59.2,9.2,1.02,23.08,6.89,29.53,22.59,16.65,40.52-47.03,99.93-51.17,103.74v.14s-.11-.04-.11-.04l-.1.08-.04-.13c-1.46-.54-8.68-3.23-18.39-7.75-25.61-11.97-68.5-36.75-68.6-68.5-.04-16.97,10.53-27.72,18.64-32.17,4.93-2.71,9.9-3.85,14.71-3.85,3.44,0,6.8.59,10,1.61,9.06,2.87,16.91,9.21,21.9,15.64,1.62,2.08,3.14,4.84,4.57,8.11.08-3.57.44-6.7,1.13-9.24,3.74-13.67,15.59-30.41,34.35-30.41m0-8.28h0c-18.96,0-32.64,13.2-39.39,28.29-5.87-5.5-12.87-9.72-20.05-12-4.14-1.32-8.35-2-12.5-2-6.51,0-12.81,1.64-18.7,4.88-11.12,6.11-22.98,19.68-22.93,39.45.1,34.5,39.96,60.37,73.37,75.99,8.33,3.88,14.87,6.46,18.03,7.65.53.28,1.08.51,1.66.67.51.14,1.03.24,1.55.28.3.04.6.05.89.05,1.6,0,3.2-.49,4.61-1.4.79-.51,1.46-1.15,2.01-1.89,4.83-4.53,20.15-19.46,33.56-38.51,20.49-29.1,26.77-53.85,18.68-73.55-7.51-18.28-23.67-26.29-36.28-27.68-1.5-.17-3.02-.25-4.5-.25Z" fill="#60262d" stroke-width="0"/><path d="m45.06,93.11c-1.63,5.15-2,10.79-1.02,16.09.78,4.23,2.45,8.74,5.11,12.16,3.15,4.07,5.41-.48,5.47-4.21.05-3.26-.13-6.53.07-9.79.44-7.15,2.77-14.15,6.59-20.2,1.98-3.15,4.93-5.47,6.99-8.45,2.32-3.36-1.8-3.88-4.84-3.27-9.4,1.88-15.64,9.08-18.37,17.67Z" fill="#fcf4d9" stroke-width="0"/><path d="m286.65,180.26v.15s.11-.04.11-.04l.1.08.04-.13c1.46-.54,8.68-3.23,18.39-7.75,25.61-11.97,68.5-36.75,68.6-68.5.04-16.97-10.53-27.72-18.64-32.17-8.45-4.64-17.02-4.7-24.72-2.25-9.06,2.87-16.91,9.21-21.9,15.64-1.62,2.08-3.14,4.84-4.57,8.11-.08-3.57-.44-6.7-1.13-9.24-3.98-14.53-17.09-32.51-37.94-30.21-9.2,1.02-23.08,6.89-29.53,22.59-16.65,40.52,47.03,99.93,51.17,103.74Z" fill="url(#g)" stroke-width="0"/><path d="m268.6,53.73c18.76,0,30.61,16.74,34.35,30.41.69,2.54,1.05,5.66,1.13,9.24,1.43-3.27,2.95-6.03,4.57-8.11,4.99-6.43,12.84-12.77,21.9-15.64,3.21-1.02,6.56-1.61,10-1.61,4.81,0,9.79,1.15,14.71,3.85,8.11,4.45,18.68,15.2,18.64,32.17-.09,31.75-42.99,56.53-68.6,68.5-9.71,4.52-16.93,7.22-18.39,7.75l-.04.13-.1-.08-.12.04v-.14c-4.13-3.81-67.81-63.22-51.16-103.74,6.45-15.71,20.34-21.58,29.53-22.59,1.22-.13,2.42-.2,3.59-.2m0-8.28c-1.48,0-2.99.08-4.5.25-12.62,1.39-28.78,9.39-36.28,27.68-8.09,19.7-1.81,44.44,18.68,73.55,13.41,19.06,28.74,33.99,33.56,38.51.55.73,1.22,1.37,2,1.88,1.41.91,3,1.4,4.61,1.4.3,0,.6-.02.9-.05.52-.04,1.04-.14,1.55-.28.58-.17,1.13-.39,1.65-.67,3.17-1.19,9.7-3.77,18.03-7.65,33.43-15.62,73.28-41.49,73.38-75.99.05-19.78-11.81-33.35-22.93-39.46-5.9-3.24-12.19-4.88-18.7-4.88-4.15,0-8.36.67-12.52,2-7.17,2.27-14.17,6.5-20.04,11.99-6.75-15.1-20.44-28.29-39.39-28.29Z" fill="#60262d" stroke-width="0"/><path d="m237.93,80.95c-1.63,5.15-2,10.79-1.02,16.09.78,4.22,2.45,8.74,5.11,12.16,3.15,4.07,5.41-.48,5.47-4.21.05-3.26-.13-6.53.07-9.79.44-7.15,2.77-14.15,6.59-20.2,1.99-3.15,4.93-5.47,6.99-8.45,2.32-3.36-1.8-3.88-4.84-3.27-9.4,1.88-15.64,9.08-18.37,17.67Z" fill="#fcf4d9" stroke-width="0"/></svg>