<svg width="29" height="40" viewBox="0 0 29 40" fill="none" xmlns="http://www.w3.org/2000/svg">
<path d="M12.7941 0.849047C13.7042 0.323654 14.8253 0.323653 15.7353 0.849047L25.1477 6.28331C26.0577 6.8087 26.6183 7.77966 26.6183 8.83048V19.699C26.6183 20.7498 26.0577 21.7207 25.1477 22.2461L15.7353 27.6804C14.8253 28.2058 13.7042 28.2058 12.7941 27.6804L3.38169 22.2461C2.47169 21.7207 1.91111 20.7498 1.91111 19.699V8.83048C1.91111 7.77966 2.47169 6.8087 3.38169 6.28331L12.7941 0.849047Z" fill="url(#paint0_linear_14_21)"/>
<g style="mix-blend-mode:hard-light">
<path d="M12.9412 12.2347C13.7602 11.7619 14.7692 11.7619 15.5882 12.2347L25.2948 17.8388C26.1138 18.3117 26.6183 19.1855 26.6183 20.1312V31.3394C26.6183 32.285 26.1138 33.159 25.2948 33.6318L15.5882 39.2358C14.7692 39.7087 13.7602 39.7087 12.9412 39.2358L3.23464 33.6318C2.41563 33.159 1.91111 32.285 1.91111 31.3394V20.1312C1.91111 19.1855 2.41563 18.3117 3.23464 17.8388L12.9412 12.2347Z" fill="url(#paint1_linear_14_21)"/>
</g>
<defs>
<linearGradient id="paint0_linear_14_21" x1="14.2647" y1="-6.10792e-07" x2="14.2647" y2="28.5294" gradientUnits="userSpaceOnUse">
<stop stop-color="#01B3FF"/>
<stop offset="1" stop-color="#6BD997"/>
</linearGradient>
<linearGradient id="paint1_linear_14_21" x1="14.2647" y1="11.4706" x2="14.2647" y2="40" gradientUnits="userSpaceOnUse">
<stop stop-color="#4301FF"/>
<stop offset="1" stop-color="#D96BCE"/>
</linearGradient>
</defs>
</svg>
